<svg xmlns="http://www.w3.org/2000/svg" xml:space="preserve" viewBox="0 0 500 500"><path fill="#FFF" d="M294 501H1V1h500v500H294m70.353-34.086c10.123-3.67 20.497-6.777 30.313-11.14 15.92-7.075 24.333-19.773 24.345-37.33.08-111.628.076-223.256.006-334.884-.011-17.764-8.463-30.529-24.612-37.687-48.494-21.494-98.716-25.225-149.673-11.49C120.756 67.796 50.492 198.094 89.977 320.097c36.988 114.287 158.307 179.47 274.376 146.816z"/><path fill="#002E72" d="M363.954 467c-115.67 32.568-236.99-32.615-273.977-146.902-39.485-122.003 30.779-252.3 154.755-285.716 50.957-13.734 101.18-10.003 149.673 11.491 16.149 7.158 24.6 19.923 24.612 37.687.07 111.628.074 223.256-.006 334.884-.012 17.557-8.424 30.255-24.345 37.33-9.816 4.363-20.19 7.47-30.712 11.226m35.89-347.366c-26.253-19.144-55.71-29.613-88.046-31.335-29.502-1.572-57.567 4.612-83.786 18.372-62.57 32.837-96.883 101.823-84.971 171.522 7.704 45.076 30.762 80.847 68.284 106.77 34.226 23.646 72.366 32.522 113.73 27.133 31.366-4.087 59.065-16.444 83.243-36.766 1.232-1.035 2.127-2.47 3.179-3.72l-.596-1.68c-5.744 0-11.49.08-17.232-.018-9.625-.163-14.74-4.372-16.842-13.715-1.076-4.781-2.119-9.57-3.447-15.579-26.54 19.392-55.267 27.04-86.812 22.375-31.745-4.693-57.202-20.321-75.663-46.454-28.188-39.9-29.724-92.202.196-130.648 44.971-57.787 100.845-61.727 162.64-26 1.064-5.039 2.144-10.171 3.232-15.302 1.463-6.895 6.528-11.845 13.233-12.44 4.306-.382 8.666-.11 12.989-.35 2.834-.159 5.646-.71 8.468-1.086l.289-1.318c-3.84-3.11-7.68-6.218-12.089-9.761M266.737 283.717c.936 1.17 1.82 2.385 2.816 3.5 16.254 18.212 41.856 23.718 63.77 13.732 22.112-10.075 34.95-33.03 31.827-56.909-3.018-23.09-19.402-41.253-42.03-46.597-21.932-5.179-45.062 3.838-57.766 22.52-13.096 19.258-12.73 43.842 1.383 63.754z"/><path fill="#00A8DF" d="M400.127 119.85a7690.61 7690.61 0 0 1 11.805 9.545l-.29 1.318c-2.821.375-5.633.927-8.467 1.085-4.323.242-8.683-.03-12.989.351-6.705.595-11.77 5.545-13.233 12.44-1.088 5.13-2.168 10.263-3.232 15.303-61.795-35.728-117.669-31.788-162.64 25.999-29.92 38.446-28.384 90.747-.196 130.648 18.461 26.133 43.918 41.76 75.663 46.454 31.545 4.664 60.273-2.983 86.812-22.375 1.328 6.01 2.37 10.798 3.447 15.579 2.103 9.343 7.217 13.552 16.842 13.715 5.742.098 11.488.018 17.232.018l.596 1.68c-1.052 1.25-1.947 2.685-3.179 3.72-24.178 20.322-51.877 32.679-83.244 36.766-41.363 5.39-79.503-3.487-113.729-27.132-37.522-25.924-60.58-61.695-68.284-106.771-11.912-69.7 22.4-138.685 84.97-171.522 26.22-13.76 54.285-19.944 83.787-18.372 32.337 1.722 61.793 12.191 88.33 31.552z"/><path fill="#78D4E0" d="M266.516 283.435c-13.892-19.63-14.258-44.214-1.162-63.472 12.704-18.682 35.834-27.699 57.766-22.52 22.628 5.344 39.012 23.507 42.03 46.597 3.122 23.88-9.715 46.834-31.827 56.91-21.914 9.985-47.516 4.479-63.77-13.732-.996-1.116-1.88-2.332-3.037-3.783z"/></svg>